<svg xmlns="http://www.w3.org/2000/svg" xmlns:xlink="http://www.w3.org/1999/xlink" viewBox="174.4343 160.2777 967.0795 292.1689" width="417" height="125.98181566251792" x="41.5px" y="187.0091px" preserveAspectRatio="none"><defs/><style>.abNVoIHQdIV0filter-floo819964ed-e64b-4680-b23e-5414714e5633 {flood-color:#1FC2A2;flood-opacity:1;}.aD6z1nYkhcolor819964ed-e64b-4680-b23e-5414714e5633 {fill:#000000;fill-opacity:1;}.aFIT4AIEErG0filter-floo819964ed-e64b-4680-b23e-5414714e5633 {flood-color:#978DAE;flood-opacity:0.1;}.ahLDsPWgykcolors-0819964ed-e64b-4680-b23e-5414714e5633 {fill:#FFFFFF;fill-opacity:1;}.ahLDsPWgykcolors-1819964ed-e64b-4680-b23e-5414714e5633 {fill:#17EEFF;fill-opacity:1;}.ahLDsPWgykcolors-2819964ed-e64b-4680-b23e-5414714e5633 {fill:#978DAE;fill-opacity:1;}.ahLDsPWgykcolors-3819964ed-e64b-4680-b23e-5414714e5633 {fill:#D5ED86;fill-opacity:1;}.ahLDsPWgykcolors-4819964ed-e64b-4680-b23e-5414714e5633 {fill:#96B07A;fill-opacity:1;}.ahLDsPWgykcolors-5819964ed-e64b-4680-b23e-5414714e5633 {fill:#58F177;fill-opacity:1;}.ahLDsPWgykcolors-6819964ed-e64b-4680-b23e-5414714e5633 {fill:#312C8E;fill-opacity:1;}.ahLDsPWgykcolors-7819964ed-e64b-4680-b23e-5414714e5633 {fill:#58F177;fill-opacity:1;}.aLnIvi-y2dBcolor819964ed-e64b-4680-b23e-5414714e5633 {fill:#000;fill-opacity:1;}.aLnIvi-y2dBstrokeColor-str819964ed-e64b-4680-b23e-5414714e5633 {stroke:#978DAE;stroke-opacity:1;}.aoqaDuW8rwo0filter-floo819964ed-e64b-4680-b23e-5414714e5633 {flood-color:#000;flood-opacity:1;}.aVzDgY6GFc0filter-floo819964ed-e64b-4680-b23e-5414714e5633 {flood-color:#ED86BF;flood-opacity:1;}.icon3-floo819964ed-e64b-4680-b23e-5414714e5633 {flood-color:#978DAE;flood-opacity:1;}.icon3-str819964ed-e64b-4680-b23e-5414714e5633 {stroke:#978DAE;stroke-opacity:1;}</style><defs>
      <filter x="0" y="0" width="0" height="0" id="819964ed-e64b-4680-b23e-5414714e5633AwMhOMVKs" filterUnits="userSpaceOnUse" primitiveUnits="userSpaceOnUse" color-interpolation-filters="sRGB">
        
    <feGaussianBlur in="SourceGraphic" stdDeviation="0"/>
    <feOffset dx="4.987076699623086" dy="0" result="IgB-TZq923"/>
    <feFlood flood-color="#978DAE" flood-opacity="1" in="IgB-TZq923"/>
    <feComposite in2="IgB-TZq923" operator="in" result="zYOzMbrgI2"/><feMerge result="x-6eSoBjd8"><feMergeNode in="zYOzMbrgI2"/><feMergeNode in="SourceGraphic"/></feMerge>
      </filter>
      <filter x="589.7719" y="163.1025" width="551.7419" height="289.3441" id="819964ed-e64b-4680-b23e-5414714e5633YI8VYDYYDf" filterUnits="userSpaceOnUse" primitiveUnits="userSpaceOnUse" color-interpolation-filters="sRGB">
        <feMerge><feMergeNode in="SourceGraphic"/></feMerge>
      </filter></defs><g filter="url(#819964ed-e64b-4680-b23e-5414714e5633AwMhOMVKs)"><g opacity="1" transform="rotate(0 1224.6088 151.3486)">
<svg width="0" height="0" x="1224.6088" y="151.3486" version="1.1" preserveAspectRatio="none" viewBox="0 0 0 0">
  <g transform="matrix(1 0 0 1 0 0)" class="aD6z1nYkhcolor819964ed-e64b-4680-b23e-5414714e5633"/>
</svg>
</g></g><g opacity="1" transform="rotate(0 174.4343 160.2777)">
<svg width="346.4171" height="292.1689" x="174.4343" y="160.2777" version="1.1" preserveAspectRatio="none" viewBox="20 33 159.99964904785156 134.94400024414062">
  <g transform="matrix(1 0 0 1 0 0)"><g><path d="m179.354 100.722-14.811-25.656c-2.744-4.753-5.239-9.64-7.642-14.57C148.971 44.215 132.268 33 112.945 33H68.869C41.88 33 20 54.878 20 81.87v86.074h92.945c16.839 0 31.688-8.517 40.479-21.478.886-1.309-.13-3.063-1.706-2.951h-.041c-1.342.103-2.68.148-4.015.148-23.065 0-44.587-14.356-56.93-37.843-1.69-3.211-.251-7.181 3.078-8.616l.775-.334c2.988-1.29 6.477-.07 7.997 2.807 10.585 20.072 28.986 31.91 48.131 30.531a28.65 28.65 0 0 0 1.142-.1c5.617-.563 9.951-5.298 9.959-10.941v-4.134a7.163 7.163 0 0 1 7.163-7.163h6.247c3.67 0 5.965-3.971 4.13-7.148Zm-37.965-5.443a6.255 6.255 0 0 1-6.255 6.255h-.838a6.255 6.255 0 0 1-6.254-6.255V76.775a6.252 6.252 0 0 1 6.254-6.25h.838a6.251 6.251 0 0 1 6.255 6.25V95.28Z" data-color="1" class="ahLDsPWgykcolors-0819964ed-e64b-4680-b23e-5414714e5633"/></g></g>
</svg>
</g><g opacity="1" transform="rotate(0 589.7719 163.1025)">
<svg width="551.7419" height="289.3441" x="589.7719" y="163.1025" version="1.1" preserveAspectRatio="none" viewBox="-0.72 -28.64 115.63999999999999 60.64">
  <g transform="matrix(1 0 0 1 0 0)" class="aLnIvi-y2dBcolor819964ed-e64b-4680-b23e-5414714e5633"><path id="id-819964ed-e64b-4680-b23e-5414714e5633LnIvi-y2dB7" d="M30.04-21Q24.40-21 24.40-16.20L24.40-16.20L24.40-16.08L34.32-16.08L34.32-8.96L24.40-8.96L24.40 0L14.96 0L14.96-16Q14.96-22.08 18.68-25.36Q22.40-28.64 29.24-28.64L29.24-28.64Q31.68-28.64 33.84-28.18Q36-27.72 37.56-26.92L37.56-26.92L34.84-19.80Q33.72-20.40 32.46-20.70Q31.20-21 30.04-21L30.04-21Z M57.80-28L67.24-28L67.24 0L58.08 0L58.08-3Q55.24 0.64 50.32 0.64L50.32 0.64Q45.40 0.64 42.68-2.60Q39.96-5.84 39.96-11.80L39.96-11.80L39.96-28L49.40-28L49.40-12.08Q49.40-9.52 50.48-8.26Q51.56-7 53.48-7L53.48-7Q55.36-7 56.58-8.38Q57.80-9.76 57.80-12.40L57.80-12.40L57.80-28Z M88.80-28.64Q93.76-28.64 96.50-25.40Q99.24-22.16 99.24-16.20L99.24-16.20L99.24 0L89.80 0L89.80-15.92Q89.80-18.48 88.70-19.74Q87.60-21 85.64-21L85.64-21Q83.68-21 82.46-19.64Q81.24-18.28 81.24-15.60L81.24-15.60L81.24 0L71.80 0L71.80-28L80.96-28L80.96-25Q83.80-28.64 88.80-28.64L88.80-28.64Z M28.08 7.08L24.96 13.80Q21.72 12 18.40 11.32L18.40 11.32L18.40 32L8.96 32L8.96 11.32Q5.64 12 2.40 13.80L2.40 13.80L-0.72 7.08Q2.28 5.28 6 4.32Q9.72 3.36 13.68 3.36L13.68 3.36Q17.64 3.36 21.36 4.32Q25.08 5.28 28.08 7.08L28.08 7.08Z M42.80 3.36Q46.88 3.36 50 4.98Q53.12 6.60 54.86 9.70Q56.60 12.80 56.60 17.08L56.60 17.08L56.60 32L47.16 32L47.16 26.36L38.28 26.36L38.28 32L29 32L29 17.08Q29 12.80 30.74 9.70Q32.48 6.60 35.60 4.98Q38.72 3.36 42.80 3.36L42.80 3.36ZM38.28 19.24L47.16 19.24L47.16 16.28Q47.16 13.68 45.94 12.34Q44.72 11 42.72 11L42.72 11Q40.72 11 39.50 12.34Q38.28 13.68 38.28 16.28L38.28 16.28L38.28 19.24Z M60.92 32L60.92 4L70.36 4L70.36 24.68L83 24.68L83 32L60.92 32Z M104 32L97 22.72L94.88 25.08L94.88 32L85.60 32L85.60 4L94.88 4L94.88 14.16L104.08 4L114.36 4L103.16 16.32L114.92 32L104 32Z"/></g>
</svg>
</g></svg>