<?xml version="1.0" encoding="UTF-8" standalone="no" ?>
<!DOCTYPE svg PUBLIC "-//W3C//DTD SVG 1.1//EN" "http://www.w3.org/Graphics/SVG/1.1/DTD/svg11.dtd">
<svg xmlns="http://www.w3.org/2000/svg" xmlns:xlink="http://www.w3.org/1999/xlink" version="1.1" width="1080" height="1080" viewBox="0 0 1080 1080" xml:space="preserve">
<desc>Created with Fabric.js 5.2.4</desc>
<defs>
</defs>
<rect x="0" y="0" width="100%" height="100%" fill="transparent"></rect>
<g transform="matrix(1 0 0 1 540 540)" id="14e8e53d-3901-4556-aff5-72428e1e752d"  >
<rect style="stroke: none; stroke-width: 1; stroke-dasharray: none; stroke-linecap: butt; stroke-dashoffset: 0; stroke-linejoin: miter; stroke-miterlimit: 4; fill: rgb(255,255,255); fill-rule: nonzero; opacity: 1; visibility: hidden;" vector-effect="non-scaling-stroke"  x="-540" y="-540" rx="0" ry="0" width="1080" height="1080" />
</g>
<g transform="matrix(1 0 0 1 540 540)" id="5d90072e-be80-4217-8cd0-50ec4ed1045b"  >
</g>
<g transform="matrix(1 0 0 1 559.31 540)"  >
<rect style="stroke: none; stroke-width: 1; stroke-dasharray: none; stroke-linecap: butt; stroke-dashoffset: 0; stroke-linejoin: miter; stroke-miterlimit: 4; fill: rgb(255,255,255); fill-rule: nonzero; opacity: 1; visibility: hidden;" vector-effect="non-scaling-stroke"  x="-540" y="-540" rx="0" ry="0" width="1080" height="1080" />
</g>
<g transform="matrix(4.3 0 0 4.56 540 540)"  >
<path style="stroke: rgb(0,0,0); stroke-width: 0; stroke-dasharray: none; stroke-linecap: butt; stroke-dashoffset: 0; stroke-linejoin: miter; stroke-miterlimit: 4; fill: rgb(255,255,255); fill-rule: nonzero; opacity: 1;" vector-effect="non-scaling-stroke"  transform=" translate(-100, -100.47)" d="M 179.354 100.722 L 164.543 75.066 C 161.799 70.313 159.304 65.426 156.901 60.496 C 148.971 44.215 132.268 33 112.945 33 L 68.869 33 C 41.88 33 20 54.878 20 81.87 L 20 167.94400000000002 L 112.945 167.94400000000002 C 129.784 167.94400000000002 144.63299999999998 159.42700000000002 153.42399999999998 146.466 C 154.30999999999997 145.157 153.29399999999998 143.40300000000002 151.718 143.51500000000001 L 151.677 143.51500000000001 C 150.33499999999998 143.61800000000002 148.99699999999999 143.663 147.662 143.663 C 124.59700000000001 143.663 103.075 129.30700000000002 90.732 105.82000000000001 C 89.042 102.60900000000001 90.481 98.63900000000001 93.81 97.20400000000001 L 94.58500000000001 96.87 C 97.57300000000001 95.58 101.06200000000001 96.80000000000001 102.58200000000001 99.677 C 113.167 119.74900000000001 131.568 131.58700000000002 150.71300000000002 130.208 C 151.09429551640335 130.18228655592117 151.47503838081232 130.14894655028115 151.85500000000002 130.108 C 157.472 129.54500000000002 161.806 124.81 161.81400000000002 119.167 L 161.81400000000002 115.033 C 161.81400000000002 113.13325428327934 162.56867104753752 111.31131720518404 163.91199412636078 109.96799412636076 C 165.25531720518407 108.62467104753749 167.0772542832794 107.87 168.97700000000003 107.87 L 175.22400000000005 107.87 C 178.89400000000003 107.87 181.18900000000005 103.899 179.35400000000004 100.72200000000001 Z M 141.389 95.279 C 141.389 98.73354111019161 138.5885411101916 101.53399999999999 135.13400000000001 101.53399999999999 L 134.29600000000002 101.53399999999999 C 130.84184942056342 101.53344777767808 128.04199995585756 98.73315062357906 128.04200000000003 95.279 L 128.04200000000003 76.775 C 128.0425303481459 75.11686647948659 128.70172999470688 73.52685648041931 129.87458252391824 72.35475409673352 C 131.0474350531296 71.18265171304772 132.6378664795409 70.52446948216988 134.29600000000002 70.525 L 135.13400000000001 70.525 C 136.7923879633352 70.52393878011166 138.3832304764091 71.18191859595676 139.55635687293525 72.35410724156642 C 140.7294832694614 73.52629588717608 141.38873503986235 75.11661171828828 141.389 76.775 L 141.389 95.28 Z" stroke-linecap="round" />
</g>
</svg>